<svg version="1.2" xmlns="http://www.w3.org/2000/svg" viewBox="0 0 1000 200" width="1000" height="200"><defs><linearGradient id="P" gradientUnits="userSpaceOnUse"/><linearGradient id="g1" x2="1" href="#P" gradientTransform="matrix(-0.62,-68.21,153.725,-1.398,91.553,96.188)"><stop stop-color="#ff3e5e"/><stop offset=".99" stop-color="#b61c22"/></linearGradient><linearGradient id="g2" x2="1" href="#P" gradientTransform="matrix(-143.718,122.479,-70.422,-82.634,185.066,27.198)"><stop stop-color="#ff5a19"/><stop offset="1" stop-color="#ff13bd"/></linearGradient><linearGradient id="g3" x2="1" href="#P" gradientTransform="matrix(.62,68.21,-153.725,1.398,126.447,95.812)"><stop stop-color="#00cfff"/><stop offset=".96" stop-color="#1e079d"/></linearGradient><linearGradient id="g4" x2="1" href="#P" gradientTransform="matrix(146.556,0,0,74.788,47.444,107.212)"><stop stop-color="#00cfff"/><stop offset="1" stop-color="#ff13bd"/></linearGradient><linearGradient id="g5" x2="1" href="#P" gradientTransform="matrix(66.454,0,0,64.35,84.733,57.076)"><stop stop-color="#ff5a19"/><stop offset="1" stop-color="#ff13bd"/></linearGradient><linearGradient id="g6" x2="1" href="#P" gradientTransform="matrix(0,-63.845,131.865,0,98.794,146.325)"><stop stop-color="#00cfff"/><stop offset="1" stop-color="#ff13bd"/></linearGradient></defs><style>.a{fill:url(#g1)}.b{fill:url(#g2)}.c{fill:url(#g3)}.d{fill:url(#g4)}.e{fill:url(#g5)}.f{fill:url(#g6)}.g{fill:#fff}</style><path class="a" d="m38.3 84.8c5.9 0 11.2-3.5 13.3-8.9 8.8-22.4 31.2-38.3 57.4-38.3 26.2 0 48.6 15.9 57.4 38.3 2.1 5.4 7.4 8.9 13.3 8.9 9.9 0 16.9-9.6 13.4-18.6-12.9-32.9-45.7-56.2-84.1-56.2-38.4 0-71.2 23.3-84.1 56.2-3.5 9 3.5 18.6 13.4 18.6z"/><path class="b" d="m170.6 33.6c-16.1-14.6-37.8-23.6-61.6-23.6-38.4 0-71.2 23.3-84.1 56.2-3.5 9 3.5 18.6 13.4 18.6 5.9 0 11.2-3.5 13.3-8.9q2-5 4.9-9.6 0 0 0-0.2c5.6-8.8 13.5-16.2 22.9-21.2 18.1-11.4 47.6-21.2 91.2-11.3z"/><path class="c" d="m179.7 107.2c-5.9 0-11.2 3.5-13.3 8.9-8.8 22.4-31.2 38.3-57.4 38.3-26.2 0-48.6-15.9-57.4-38.3-2.1-5.4-7.4-8.9-13.3-8.9-9.9 0-16.9 9.6-13.4 18.6 12.9 32.9 45.7 56.2 84.1 56.2 38.4 0 71.2-23.3 84.1-56.2 3.5-9-3.5-18.6-13.4-18.6z"/><path class="d" d="m47.4 158.4c16.1 14.6 37.8 23.6 61.6 23.6 38.4 0 71.2-23.3 84.1-56.2 3.5-9-3.5-18.6-13.4-18.6-5.9 0-11.2 3.5-13.3 8.9q-2 5-4.9 9.6 0 0 0 0.2c-5.6 8.8-13.5 16.2-22.9 21.2-18.1 11.4-47.6 21.2-91.2 11.3z"/><path class="e" d="m149.8 96.6l-40.8 39.5-40.8-39.5 40.8-39.5z"/><path class="f" d="m149.8 96.6h-81.6l40.8 39.5z"/><path class="g" d="m271.8 142.3q-7.4 0-13-2.9-5.5-2.8-8.1-6l5.1-12.2q1.1 1.6 3.4 3.6 2.3 2 5.3 3.5 3.1 1.4 6.4 1.4 3.8 0 6.6-2.4 2.8-2.5 2.8-7.2 0-4.7-2.9-7.5-2.9-2.7-7.9-6.2-4.1-2.9-8-6.1-4-3.2-6.6-7.9-2.6-4.7-2.6-11.8 0-9.6 5.3-15.8 5.4-6.2 15.5-6.2 5.2 0 8.8 1.4 3.6 1.4 5.9 3.2 2.2 1.8 3.4 3l-5.7 11.8q-0.7-1.2-2.4-2.8-1.7-1.7-4.1-3-2.4-1.3-5.3-1.3-4.1 0-6.2 2.8-2 2.6-2 6.3 0 4.7 2.9 7.7 3.1 2.9 7.4 5.9 4.7 3.2 8.8 6.5 4 3.3 6.5 7.9 2.5 4.5 2.5 11.6 0 10.6-5.8 16.7-5.8 6-16 6zm91.1 0.1q-9.6 0-16.1-5.2-6.6-5.2-10-14.6-3.4-9.4-3.4-22.2 0-12.6 3.4-22 3.3-9.4 9.8-14.6 6.5-5.2 16-5.2 9.8 0 16.4 5.3 6.6 5.3 9.8 14.7 3.3 9.4 3.3 21.8 0 12.8-3.4 22.2-3.4 9.4-9.9 14.6-6.5 5.2-15.9 5.2zm0-12.4q6.6 0 11.2-7.4 4.6-7.3 4.6-22.5 0-14.6-4.3-22-4.3-7.4-11.8-7.4-7.3 0-11.5 7.4-4.1 7.5-4.1 22.1 0 15.2 4.4 22.5 4.4 7.3 11.5 7.3zm107.9 11h-33.9v-81h12.9v68.2h21zm50.5 0h-14.1l29.8-82.4h1l30 82.4h-13.8l-3.9-11.7h-25.2zm16.1-51.6l-1.7 6.5-7 22.1h17.8l-7.4-22.1zm93 53.1q-7 0-12.7-2.7-5.7-2.8-9-9.4-3.4-6.7-3.4-18.4v-52h13.1v53.7q0 6.8 1.9 10.3 2 3.4 4.7 4.7 2.8 1.1 5.1 1.1 2.5 0 5.2-1.1 2.6-1.2 4.5-4.6 1.8-3.5 1.8-10.4v-53.7h13.1v52q0 11.7-3.3 18.4-3.2 6.6-8.8 9.4-5.5 2.7-12.2 2.7zm121.8 0.1h-1l-33.8-44.3-3.2-4.6 0.5 11.3v36h-12.4v-82.4h1.1l33.3 44.6 3.5 5.3-0.5-11.1v-37.4h12.5zm73.2-0.2q-5.5 0-10.6-2.6-5.1-2.6-9.2-7.9-4.1-5.2-6.4-13.4-2.4-8.1-2.4-19.1 0-13.3 4-22.4 4-9.1 10.8-13.7 6.7-4.7 14.9-4.7 5.6 0 9.1 1.2 3.5 1.2 5.6 2.9 2.1 1.7 3.4 3.1l-5.6 12.2q-2.2-2.8-4.5-4.4-2.4-1.7-7.5-1.7-5.1 0-8.8 3.5-3.6 3.4-5.5 9.4-1.9 6-1.9 13.7 0 15.2 4.4 22.9 4.5 7.7 10.7 7.7 4.8 0 8.2-1.6 3.4-1.5 5.1-3.5l5.5 11.5q-1.4 1.3-3.8 3-2.3 1.5-6.1 2.7-3.7 1.2-9.4 1.2zm74.9-1.4h-13.1v-81h13.1v33.8h23.2v-33.8h13.2v81h-13.2v-34.4h-23.2z"/></svg>